<?xml version="1.0" encoding="UTF-8" standalone="no"?>
<svg
   height="64"
   version="1.2"
   width="64"
   viewBox="0 0 64 64"
>
   <!-- New Cloud -->
   <title>Heavy Rain Shower</title>
   <path
      fill="gray"
      d="m 37.5,28.125 
         c 2.625,0 4.875,1 6.875,2.875 1.875,1.875 2.875,4.125 2.875,6.875 0,2.625 -1,4.875 -2.875,6.875 -1.875,1.875 -4.125,2.875 -6.875,2.875 
         h -6 
         v -4.5 
         h 6 
         c 1.375,0 2.625,-0.5 3.625,-1.5 1,-1 1.5,-2.125 1.5,-3.625 0,-1.375 -0.5,-2.625 -1.5,-3.625 -1,-1 -2.125,-1.5 -3.625,-1.5 -0.125,0 -0.25,0 -0.375,0.125 -0.125,0.125 -0.25,0.125 -0.375,0.125 -0.125,1.25 -0.375,2.5 -0.875,3.75 
         l -4.5,-1 
         c 0.75,-1.5 0.875,-2.25 0.875,-3.875 0,-2.375 -0.875,-4.125 -2.5,-6.125 -1.625,-1.625 -3.625,-2.5 -6.125,-2.5 -2.125,0 -3.875,0.625 -5.5,1.875 -1.625,1.25 -2.625,2.875 -3,4.875 
         C 16.25,30.875 17.25,32 18,33.25 
         l -3.875,2.25 
         c -1,-1.75 -2.5,-2.625 -4.375,-2.625 -1.375,0 -2.625,0.5 -3.625,1.5 -1,1 -1.5,2.125 -1.5,3.625 0,1.375 0.5,2.625 1.5,3.625 1,1 2.125,1.5 3.625,1.5 
         h 6 
         v 4.5 
         h -6 
         C 7.125,47.625 4.875,46.75 2.875,44.75 1,42.875 0,40.625 0,37.875 0,35.25 1,32.875 2.875,31 4.75,29.125 7,28.125 9.75,28.125 
         c 0.5,0 0.875,0.125 1.125,0.125 0.75,-2.875 2.25,-5.125 4.625,-7.125 2.375,-1.875 5,-2.75 8.125,-2.75 3,0 5.75,0.875 8.125,2.75 2.375,1.875 3.875,4.125 4.75,7.125 0.25,-0.125 0.625,-0.125 1.125,-0.125 
         z"
   />
   <!-- First rain drop -->
   <path
      fill="skyblue"
      d="m 28.250,48.250 
         q -0.125,1.750 -1.500,3.000 -1.375,1.250 -3.250,1.250 -2.000,0 -3.375,-1.375 -1.375,-1.375 -1.375,-3.375 0,-2.875 2.500,-4.125 
         l 7.875,-4.625 -0.875,9.125 
         z"
   />
   <!-- Second rain drop -->
   <path
      fill="skyblue"
      d="m 15.125,59.625 
      q -0.125,1.750 -1.562,3.000 -1.375,1.250 -3.125,1.250 -2.000,0 -3.375,-1.375 -1.375,-1.375 -1.375,-3.375 0,-2.750 2.375,-4.125 
      l 7.875,-4.625 -0.750,9.125 
      z"
   />
   <!-- Partial Moon -->
   <path
      fill="gainsboro" 
      d="m 62.250,34.625 
         q 0.625,0 1.750,-0.125 -4.250,5.625 -11.250,5.625 -1.625,0 -2.750,-0.250 0.125,-1.250 0.125,-1.875 0,-4.875 -3.375,-8.250 -3.375,-3.500 -8.125,-3.750 0.125,-5.375 3.625,-9.250 3.500,-3.875 8.750,-4.625 -2.875,3.750 -2.875,8.625 0,5.875 4.125,10.000 4.125,4.125 10.000,4.125 
         z"  
   />
</svg>
