<?xml version="1.0" encoding="UTF-8" standalone="no"?>
<svg
   height="64"
   version="1.2"
   width="64"
   viewBox="0 0 64 64"
>
   <!-- Cloud - centred -->
   <title>Light Rain/Snow</title>
   <path
      fill="lightgray"
      d="m 46.00,28.125 
      c 2.625,0.00 4.875,1.00 6.875,2.875 1.875,1.875 2.875,4.125 2.875,6.875 0.00,2.625 -1.00,4.875 -2.875,6.875 -1.875,1.875 -4.125,2.875 -6.875,2.875 
      h -6.000 
      v -4.500 
      h 6.000 
      c 1.375,0.00 2.625,-0.500 3.625,-1.500 1.000,-1.000 1.500,-2.125 1.500,-3.625 0.000,-1.375 -0.500,-2.625 -1.500,-3.625 -1.000,-1.000 -2.125,-1.500 -3.625,-1.500 -0.125,0.000 -0.250,0.000 -0.375,0.125 -0.125,0.125 -0.250,0.125 -0.375,0.125 -0.125,1.250 -0.375,2.500 -0.875,3.750 
      L 39.875,35.875 
      C 40.625,34.375 40.750,33.625 40.750,32.000 
      c 0.000,-2.375 -0.875,-4.125 -2.500,-6.125 -1.625,-1.625 -3.625,-2.500 -6.125,-2.500 -2.125,0.000 -3.875,0.625 -5.500,1.875 -1.625,1.250 -2.625,2.875 -3.000,4.875 1.125,0.750 2.125,1.875 2.875,3.125 
      l -3.875,2.250 
      c -1.000,-1.750 -2.500,-2.625 -4.375,-2.625 -1.375,0.000 -2.625,0.500 -3.625,1.500 -1.000,1.000 -1.500,2.125 -1.500,3.625 0.000,1.375 0.500,2.625 1.500,3.625 1.000,1.000 2.125,1.500 3.625,1.500 
      h 6.000 
      v 4.500 
      h -6.000 
      c -2.625,0.000 -4.875,-0.875 -6.875,-2.875 
      C 9.500,42.875 8.500,40.625 8.500,37.875 8.500,35.250 9.500,32.875 11.375,31.000 
      c 1.875,-1.875 4.125,-2.875 6.875,-2.875 0.500,0.000 0.875,0.125 1.125,0.125 0.750,-2.875 2.250,-5.125 4.625,-7.125 2.375,-1.875 5.000,-2.750 8.125,-2.750 3.000,0.000 5.750,0.875 8.125,2.750 2.375,1.875 3.875,4.125 4.750,7.125 0.250,-0.125 0.625,-0.125 1.125,-0.125 
      z"
   />
   <!-- First raindrop - centered -->     
   <path
      fill="lightblue"
      d="m 27.75,44.875 7.25,7.25 1.375,-1.5 -7.25,-7.25 z 
      m 2.0,7.5 2.0,0.5 2.625,-9.875 -2.0,-0.5 z 
      m -2.875,-4.375 0.625,2.0 9.875,-2.625 -0.625,-2.0 
      z"
   />
   <!-- Second snowflake - centred -->     
   <path
      fill="lightblue"
      d="m 23.25,59.625
         q -0.125,1.75 -1.5,3.0 -1.375,1.25 -3.125,1.25 -2.0,0 -3.375,-1.375 -1.375,-1.375 -1.375,-3.375 0,-2.75 2.375,-4.125
         l 7.875,-4.625 -0.75,9.0
         z"
   />
</svg>
