<?xml version="1.0" encoding="UTF-8" standalone="no"?>
<svg
   height="64"
   version="1.2"
   width="64"
   viewBox="0 0 64 64"
>
   <!-- Full Sun - Centred -->
   <title>Clear</title>
   <path
      fill="goldenrod"
      d="m 42.0,48.0 
         q 4.125,-4.125 4.125,-10.0 0,-5.875 -4.125,-10.0 -4.125,-4.125 -10.0,-4.125 -5.875,0 -10.0,4.125 -4.125,4.125 -4.125,10.0 0,5.875 4.125,10.0 4.125,4.125 10.0,4.125 5.875,0 10.0,-4.125 z 
         M 29.75,21.375 
         h 4.625 
         v -9.625 
         h -4.625 z 
         m -12.75,-5.0 4.75,8.25 4.0,-2.25 -4.75,-8.25 z 
         m 21.875,36.875 4.75,8.25 4.0,-2.25 -4.75,-8.25 z 
         m 6.875,-5.25 8.25,4.75 2.25,-4.0 -8.25,-4.75 z 
         M 5.875,40.125 
         h 9.625 
         v -4.625 
         h -9.625 z 
         m 42.625,0 
         h 9.625 
         v -4.625 
         h -9.625 z 
         m -40.25,8.75 2.25,4.0 8.25,-4.75 -2.25,-4.0 z 
         m 36.875,-21.25 2.25,4.0 8.25,-4.75 -2.25,-4.0 z 
         m -6.875,-5.125 4.0,2.25 4.75,-8.25 -4.0,-2.25 z 
         m -21.25,36.875 4.0,2.25 4.75,-8.25 -4.0,-2.25 z 
         M 29.75,64.0 
         h 4.625 
         V 54.375 
         H 29.75 Z 
         M 8.25,26.75 
         l 8.25,4.75 2.25,-4.0 -8.25,-4.75 
         z"
   />
</svg>
